<svg viewBox="0 0 181 32" xmlns="http://www.w3.org/2000/svg">
<path d="m36.731 16.569c1.6519 2.8611 0.6716 6.5196-2.1895 8.1715l-7.1733 4.1414c-2.8611 1.6519-6.5196 0.6716-8.1714-2.1895-1.6519-2.8611-0.6716-6.5196 2.1895-8.1714l7.1732-4.1415c2.8612-1.6519 6.5196-0.6716 8.1715 2.1895z" clip-rule="evenodd" fill="#ADF485" fill-rule="evenodd"/>
<path d="m28.892 2.992c1.6518 2.8611 0.6716 6.5196-2.1895 8.1714l-16.74 9.6648c-2.8611 1.6519-6.5196 0.6716-8.1715-2.1895-1.6519-2.8611-0.67157-6.5196 2.1895-8.1715l16.74-9.6648c2.8611-1.6519 6.5196-0.67157 8.1715 2.1895z" clip-rule="evenodd" fill="#ADF485" fill-rule="evenodd"/>
<path d="m57.505 25.656h-3.6002v-18.397h-6.8033v-3.2316h17.264v3.2316h-6.86v18.397z" fill="#23322B"/>
<path d="m69.476 25.968c-1.5496 0-2.9292-0.3497-4.1387-1.0489s-2.1544-1.6725-2.8347-2.9198c-0.6615-1.2662-0.9922-2.7119-0.9922-4.3371 0-1.5686 0.3307-2.9671 0.9922-4.1955 0.6803-1.2472 1.6252-2.2111 2.8347-2.8914 1.2095-0.69923 2.5891-1.0488 4.1387-1.0488 1.5497 0 2.9293 0.34961 4.1388 1.0488 1.2095 0.6803 2.1544 1.6442 2.8347 2.8914 0.6804 1.2284 1.0205 2.6269 1.0205 4.1955 0 1.6063-0.3401 3.0426-1.0205 4.3088-0.6614 1.2473-1.5969 2.23-2.8064 2.9481-1.2095 0.6992-2.5985 1.0489-4.1671 1.0489zm0-2.9198c0.8694 0 1.6536-0.2268 2.3529-0.6804 0.6992-0.4724 1.2378-1.115 1.6158-1.9276 0.3969-0.8126 0.5953-1.7386 0.5953-2.778 0-0.9827-0.1984-1.871-0.5953-2.6647-0.378-0.8126-0.9166-1.4457-1.6158-1.8993-0.6993-0.4535-1.4835-0.6803-2.3529-0.6803-0.8693 0-1.6535 0.2268-2.3528 0.6803-0.6992 0.4347-1.2473 1.0583-1.6441 1.871-0.378 0.7937-0.567 1.6914-0.567 2.693 0 1.0583 0.1984 1.9937 0.5953 2.8064 0.3969 0.8126 0.9355 1.4457 1.6158 1.8992 0.6993 0.4536 1.4835 0.6804 2.3528 0.6804z" fill="#23322B"/>
<path d="m88.311 9.4979c1.3796 0 2.5891 0.34961 3.6285 1.0489 1.0583 0.6803 1.8804 1.6441 2.4662 2.8914s0.8788 2.6741 0.8788 4.2805c0 1.6063-0.293 3.0331-0.8788 4.2804s-1.4079 2.2206-2.4662 2.9198c-1.0394 0.6803-2.2489 1.0205-3.6285 1.0205-1.0016 0-1.8709-0.1795-2.608-0.5386-0.737-0.3591-1.4457-0.9922-2.126-1.8993v7.9373h-3.345v-21.629h3.345v2.1544c0.6803-0.9071 1.3796-1.5402 2.0977-1.8992 0.737-0.37801 1.6158-0.56699 2.6363-0.56699zm-0.6803 2.8914c-0.8505 0-1.6064 0.2268-2.2678 0.6804-0.6615 0.4535-1.1812 1.0866-1.5591 1.8993-0.378 0.8126-0.567 1.7292-0.567 2.7497s0.189 1.937 0.567 2.7497c0.3779 0.8126 0.8976 1.4457 1.5591 1.8992 0.6614 0.4536 1.4173 0.6804 2.2678 0.6804 1.3039 0 2.3433-0.5008 3.1182-1.5024 0.7748-1.0016 1.1622-2.2773 1.1622-3.8269 0-1.5497-0.3874-2.8253-1.1622-3.8269-0.7749-1.0017-1.8143-1.5025-3.1182-1.5025z" fill="#23322B"/>
<path d="m106.16 9.4979c1.38 0 2.589 0.34961 3.629 1.0489 1.058 0.6803 1.88 1.6441 2.466 2.8914s0.879 2.6741 0.879 4.2805c0 1.6063-0.293 3.0331-0.879 4.2804s-1.408 2.2206-2.466 2.9198c-1.04 0.6803-2.249 1.0205-3.629 1.0205-1.001 0-1.871-0.1795-2.608-0.5386s-1.445-0.9922-2.126-1.8993v7.9373h-3.3447v-21.629h3.3447v2.1544c0.681-0.9071 1.38-1.5402 2.098-1.8992 0.737-0.37801 1.616-0.56699 2.636-0.56699zm-0.68 2.8914c-0.85 0-1.606 0.2268-2.268 0.6804-0.661 0.4535-1.181 1.0866-1.559 1.8993-0.378 0.8126-0.567 1.7292-0.567 2.7497s0.189 1.937 0.567 2.7497c0.378 0.8126 0.898 1.4457 1.559 1.8992 0.662 0.4536 1.418 0.6804 2.268 0.6804 1.304 0 2.343-0.5008 3.118-1.5024s1.162-2.2773 1.162-3.8269c0-1.5497-0.387-2.8253-1.162-3.8269-0.775-1.0017-1.814-1.5025-3.118-1.5025z" fill="#23322B"/>
<path d="m123.19 25.968c-1.55 0-2.929-0.3497-4.139-1.0489-1.19-0.7181-2.116-1.6914-2.778-2.9198-0.661-1.2473-0.992-2.6457-0.992-4.1954 0-1.4363 0.293-2.7875 0.879-4.0537 0.605-1.2662 1.493-2.2867 2.665-3.0615 1.19-0.77483 2.617-1.1622 4.28-1.1622 1.399 0 2.693 0.30237 3.884 0.90714 1.209 0.5858 2.173 1.4835 2.891 2.693 0.737 1.2095 1.106 2.693 1.106 4.4505v0.8504h-12.303c0.113 0.7371 0.293 1.3229 0.539 1.7576 0.377 0.8882 0.916 1.5874 1.615 2.0977 0.718 0.5102 1.531 0.7654 2.438 0.7654 0.964 0 1.786-0.2457 2.466-0.7371 0.7-0.5102 1.2-1.1433 1.503-1.8992h3.458c-0.51 1.6441-1.398 2.9859-2.664 4.0253-1.267 1.0205-2.882 1.5308-4.848 1.5308zm4.309-10.177c-0.076-0.5858-0.246-1.0866-0.51-1.5024-0.378-0.6614-0.898-1.1622-1.559-1.5024-0.662-0.3591-1.399-0.5386-2.212-0.5386-0.831 0-1.568 0.1795-2.211 0.5386-0.642 0.3402-1.162 0.841-1.559 1.5024-0.245 0.378-0.434 0.8788-0.567 1.5024h8.618z" fill="#23322B"/>
<path d="m133.7 25.656v-15.846h3.345v1.9843c0.624-0.8315 1.304-1.4173 2.041-1.7575 0.756-0.34016 1.644-0.51024 2.665-0.51024h0.368v3.2599h-0.85c-1.266 0-2.24 0.3402-2.92 1.0205-0.869 0.8126-1.304 2.2111-1.304 4.1954v7.6538h-3.345z" fill="#23322B"/>
<path d="m151.81 14.746v-6.6518h0.518v2.612c0.388-0.5498 0.997-0.89802 1.677-0.89802 1.286 0 2.154 1.0074 2.154 2.5323s-0.878 2.5225-2.154 2.5225c-0.719 0-1.336-0.3881-1.677-0.8881v0.7686h-0.518v0.0025zm0.518-1.2064c0.279 0.4577 0.918 0.8582 1.587 0.8582 1.077 0 1.687-0.8881 1.687-2.0548s-0.61-2.0647-1.687-2.0647c-0.669 0-1.306 0.4179-1.587 0.8781v2.3832z" fill="#23322B"/>
<path d="m157.11 16.152c0.109 0.0498 0.298 0.0796 0.418 0.0796 0.318 0 0.539-0.1293 0.728-0.5895l0.379-0.8583-2.035-4.8582h0.579l1.757 4.209 1.736-4.209h0.589l-2.492 5.8757c-0.259 0.6094-0.669 0.898-1.236 0.898-0.16 0-0.379-0.0299-0.508-0.0697l0.09-0.4776h-5e-3z" fill="#23322B"/>
<path d="m154.94 25.849v-0.6393c-0.348 0.388-0.948 0.7587-1.707 0.7587-1.037 0-1.544-0.5398-1.544-1.5249v-3.4105h1.047v3.0324c0 0.7487 0.378 0.9776 0.968 0.9776 0.529 0 0.987-0.2985 1.236-0.6294v-3.3806h1.047v4.8185h-1.047v-0.0025z" fill="#23322B"/>
<path d="m158.29 27.681h-1.047v-6.6518h1.047v0.6592c0.359-0.4776 0.918-0.7786 1.545-0.7786 1.247 0 2.135 0.9378 2.135 2.5224s-0.888 2.5323-2.135 2.5323c-0.609 0-1.156-0.2686-1.545-0.7885v2.505zm1.237-5.8459c-0.488 0-1.008 0.2886-1.237 0.6493v1.9055c0.229 0.3483 0.749 0.6493 1.237 0.6493 0.828 0 1.356-0.6692 1.356-1.607 0-0.9379-0.53-1.5971-1.356-1.5971z" fill="#23322B"/>
<path d="m166.24 25.848v-3.0324c0-0.7487-0.388-0.9776-0.978-0.9776-0.53 0-0.987 0.3184-1.236 0.6493v3.3607h-1.048v-6.6518h1.048v2.4926c0.318-0.3782 0.948-0.7787 1.706-0.7787 1.038 0 1.555 0.5398 1.555 1.5249v3.4105h-1.047v0.0025z" fill="#23322B"/>
<path d="m168.25 23.433c0-1.3757 0.948-2.5224 2.473-2.5224 1.524 0 2.482 1.1467 2.482 2.5224 0 1.3756-0.938 2.5323-2.482 2.5323-1.545 0-2.473-1.1467-2.473-2.5323zm3.871 0c0-0.8483-0.498-1.5971-1.396-1.5971s-1.386 0.7488-1.386 1.5971c0 0.8482 0.498 1.607 1.386 1.607s1.396-0.7488 1.396-1.607z" fill="#23322B"/>
<path d="m174.2 25.848v-6.6518h1.047v6.6518h-1.047z" fill="#23322B"/>
<path d="m179.94 25.848v-0.6592c-0.368 0.4776-0.928 0.7786-1.545 0.7786-1.236 0-2.144-0.9378-2.144-2.5224s0.898-2.5323 2.144-2.5323c0.6 0 1.157 0.2786 1.545 0.7885v-2.5025h1.047v6.6518h-1.047v-0.0025zm0-3.3607c-0.239-0.3582-0.749-0.6492-1.246-0.6492-0.829 0-1.356 0.6691-1.356 1.6069 0 0.9379 0.53 1.5971 1.356 1.5971 0.497 0 1.007-0.2786 1.246-0.6393v-1.9155z" fill="#23322B"/>
</svg>
